<svg width="420" height="128" viewBox="0 0 420 128" fill="none" xmlns="http://www.w3.org/2000/svg">
<path d="M109.51 87.77C104.33 87.77 99.9667 85.6 96.42 81.26C92.8733 76.92 91.1 71.6 91.1 65.3C91.1 57.6 93.2233 51.1133 97.47 45.84C101.763 40.5667 107.013 37.93 113.22 37.93C115.647 37.93 117.887 38.1867 119.94 38.7C122.04 39.1667 123.533 39.6567 124.42 40.17L125.68 40.94L120.92 50.67C119.847 49.7367 118.33 48.8733 116.37 48.08C114.41 47.24 112.637 46.82 111.05 46.82C107.83 46.82 105.24 48.15 103.28 50.81C101.367 53.47 100.41 57.2733 100.41 62.22C100.41 67.12 101.413 71.1567 103.42 74.33C105.427 77.4567 108.157 79.02 111.61 79.02C113.85 79.02 115.88 78.32 117.7 76.92C119.52 75.52 120.803 73.6533 121.55 71.32L127.36 74.68C125.82 78.7867 123.463 82.0067 120.29 84.34C117.117 86.6267 113.523 87.77 109.51 87.77ZM161.435 87.35L158.005 73.7H141.275L137.565 87L128.605 86.3L134.765 69.29L144.145 39.19L156.675 38.28L165.705 68.24L171.515 85.81L161.435 87.35ZM150.375 47.38H149.465L143.445 66.28H155.905L150.375 47.38ZM193.325 38.7C197.805 38.7 201.375 39.9833 204.035 42.55C206.695 45.07 208.025 48.5467 208.025 52.98C208.025 57.4133 206.345 61.2167 202.985 64.39C199.625 67.5167 195.518 69.08 190.665 69.08H186.675L187.515 87H178.135L178.975 69.99L178.135 38.7H193.325ZM190.805 45.77H187.375L186.885 62.29H191.645C193.978 62.29 195.775 61.52 197.035 59.98C198.342 58.44 198.995 56.2467 198.995 53.4C198.995 48.3133 196.265 45.77 190.805 45.77ZM233.35 38C238.857 38 243.384 40.1 246.93 44.3C250.524 48.5 252.32 53.8433 252.32 60.33C252.32 68.5433 250.197 75.17 245.95 80.21C241.704 85.25 236.127 87.77 229.22 87.77C223.854 87.77 219.35 85.6233 215.71 81.33C212.07 76.99 210.25 71.6467 210.25 65.3C210.25 57.3667 212.42 50.8333 216.76 45.7C221.1 40.5667 226.63 38 233.35 38ZM242.8 64.25C242.8 52.4433 238.927 46.54 231.18 46.54C227.634 46.54 224.834 47.87 222.78 50.53C220.774 53.1433 219.77 57.0867 219.77 62.36C219.77 67.5867 220.844 71.9033 222.99 75.31C225.184 78.67 228.054 80.35 231.6 80.35C235.194 80.35 237.947 78.9267 239.86 76.08C241.82 73.1867 242.8 69.2433 242.8 64.25ZM260.03 87L260.87 69.99L260.03 38.7H286.28L285.51 46.19H269.76L269.34 58.58H283.34L282.57 66H269.06L268.99 68.8L269.48 79.58H286.42L285.65 87H260.03ZM304.423 38.35L303.443 68.8L304.283 87H294.483L295.323 69.99L294.483 40.1L304.423 38.35ZM328.136 68.38H324.146V68.8L324.986 87H315.606L316.446 69.99L315.606 38.7H330.796C335.276 38.7 338.846 39.9133 341.506 42.34C344.166 44.7667 345.496 47.9867 345.496 52C345.496 55.0333 344.703 57.81 343.116 60.33C341.576 62.8033 339.476 64.7633 336.816 66.21L348.996 83.43L340.526 87.77L329.606 68.31C329.279 68.3567 328.789 68.38 328.136 68.38ZM328.276 45.77H324.846L324.356 61.59H329.116C331.449 61.59 333.246 60.82 334.506 59.28C335.813 57.74 336.466 55.5467 336.466 52.7C336.466 48.08 333.736 45.77 328.276 45.77ZM384.423 87.35L380.993 73.7H364.263L360.553 87L351.593 86.3L357.753 69.29L367.133 39.19L379.663 38.28L388.693 68.24L394.503 85.81L384.423 87.35ZM373.363 47.38H372.453L366.433 66.28H378.893L373.363 47.38Z" fill="white"/>
<path d="M114.053 117.906C114.053 120.844 113.215 123.094 111.539 124.656C109.87 126.219 107.457 127 104.3 127H99.2461V109.153H104.849C107.763 109.153 110.025 109.922 111.636 111.46C113.248 112.999 114.053 115.147 114.053 117.906ZM110.123 118.003C110.123 114.17 108.43 112.254 105.044 112.254H103.03V123.875H104.654C108.3 123.875 110.123 121.918 110.123 118.003ZM141.677 127L140.383 122.752H133.877L132.583 127H128.506L134.805 109.08H139.431L145.754 127H141.677ZM139.48 119.578C138.284 115.729 137.608 113.552 137.454 113.047C137.307 112.543 137.201 112.144 137.136 111.851C136.868 112.893 136.099 115.468 134.829 119.578H139.48ZM176.845 127H172.036L164.272 113.499H164.162C164.317 115.883 164.394 117.584 164.394 118.602V127H161.013V109.153H165.786L173.537 122.52H173.623C173.5 120.201 173.439 118.561 173.439 117.601V109.153H176.845V127ZM201.93 112.046C200.506 112.046 199.403 112.583 198.622 113.658C197.841 114.724 197.45 116.213 197.45 118.125C197.45 122.105 198.944 124.095 201.93 124.095C203.183 124.095 204.701 123.781 206.483 123.155V126.329C205.019 126.939 203.383 127.244 201.576 127.244C198.98 127.244 196.994 126.459 195.619 124.888C194.244 123.309 193.556 121.047 193.556 118.101C193.556 116.246 193.894 114.622 194.569 113.23C195.245 111.831 196.213 110.761 197.475 110.02C198.744 109.271 200.229 108.897 201.93 108.897C203.664 108.897 205.405 109.316 207.155 110.154L205.934 113.23C205.267 112.913 204.595 112.636 203.92 112.4C203.244 112.164 202.581 112.046 201.93 112.046ZM233.57 127H223.292V109.153H233.57V112.254H227.076V116.172H233.119V119.273H227.076V123.875H233.57V127ZM273.523 127H269.8V109.153H280.029V112.254H273.523V116.856H279.578V119.944H273.523V127ZM296.521 127V109.153H300.305V127H296.521ZM324.572 116.978H331.652V126.231C330.504 126.605 329.422 126.866 328.405 127.012C327.396 127.167 326.362 127.244 325.304 127.244C322.611 127.244 320.552 126.455 319.127 124.876C317.711 123.289 317.003 121.014 317.003 118.052C317.003 115.171 317.825 112.925 319.469 111.314C321.121 109.703 323.408 108.897 326.33 108.897C328.161 108.897 329.927 109.263 331.627 109.996L330.37 113.023C329.068 112.372 327.713 112.046 326.305 112.046C324.669 112.046 323.359 112.596 322.375 113.694C321.39 114.793 320.897 116.27 320.897 118.125C320.897 120.062 321.292 121.543 322.082 122.569C322.879 123.586 324.035 124.095 325.548 124.095C326.338 124.095 327.139 124.013 327.953 123.851V120.127H324.572V116.978ZM363.536 127H359.764V119.297H352.696V127H348.912V109.153H352.696V116.148H359.764V109.153H363.536V127ZM387.938 127H384.153V112.303H379.307V109.153H392.784V112.303H387.938V127Z" fill="#F9F9F9"/>
<path d="M48.292 44.7192C51.4177 44.7192 54.6585 43.7034 57.4611 40.8996L58.2566 40.2522C69.6679 30.7758 81.0816 21.2982 92.4929 11.7534C93.0387 11.2907 93.4573 10.6323 93.986 9.80008C94.85 8.44528 96.1522 6.39899 97.6282 6.15543C98.4531 6.01714 99.4615 6.4308 100.634 7.37317C102.093 8.53584 102.954 9.87964 102.788 10.7253C102.597 11.6824 101.004 12.6774 98.529 13.3884C97.4152 13.7079 96.7715 14.8681 97.0921 15.9806C97.4128 17.0943 98.5632 17.7405 99.6843 17.4174C103.938 16.1972 106.367 14.2207 106.898 11.5441C107.395 9.05231 106.065 6.33901 103.253 4.10057C101.121 2.38717 98.9965 1.68957 96.9477 2.01878C93.6237 2.56707 91.6362 5.68546 90.4515 7.54818C90.17 7.99121 89.9473 8.3755 89.7465 8.59091C78.3965 18.0807 66.9852 27.5546 55.5788 37.0273L54.6414 37.8044C50.1914 42.2434 44.4564 40.2937 41.3209 38.4788C44.4172 35.5868 47.5112 32.685 50.6075 29.782C54.2717 26.3467 57.936 22.9113 61.6002 19.493C62.4471 18.7037 62.4936 17.377 61.703 16.5313C60.9173 15.6844 59.5858 15.6403 58.7413 16.4285C55.0746 19.848 51.4079 23.2858 47.7413 26.7248C44.0183 30.2141 40.2977 33.7033 36.5748 37.1754C36.144 37.578 35.9017 38.1434 35.909 38.7346C35.9163 39.3245 36.1709 39.885 36.6139 40.2766C38.8707 42.2776 43.4455 44.7192 48.292 44.7192Z" fill="#EDC100"/>
<path d="M20.0526 71.594C29.1533 71.594 39.7372 64.2043 49.0018 57.2185C49.9246 56.5221 50.1082 55.2077 49.413 54.2837C48.7154 53.3597 47.4084 53.1737 46.4758 53.8725C39.5096 59.1265 27.9539 67.9212 19.3085 67.3802C14.8096 67.0559 11.8748 64.0978 10.6363 61.4384C9.45893 58.9135 9.56418 56.385 10.9276 54.5015C13.3116 51.322 15.7226 48.4544 18.2805 45.7644C19.0785 44.9248 19.0442 43.5982 18.2046 42.8002C17.3651 42.0059 16.0409 42.0365 15.2405 42.8761C12.57 45.6873 10.0562 48.676 7.55218 52.0159C5.28314 55.1514 5.02368 59.3248 6.83743 63.2105C9.05996 67.9799 13.7327 71.1803 19.0246 71.5621C19.3649 71.5842 19.7075 71.594 20.0526 71.594ZM26.637 37.1803C27.1192 37.1803 27.6014 37.015 27.998 36.6785C34.1368 31.4428 40.8681 26.5229 47.3765 21.7658C50.5659 19.4343 53.7553 17.1041 56.8908 14.7286C57.8993 13.9233 58.6728 12.5428 59.9554 10.1685C61.0152 8.21275 62.9857 4.57299 64.1752 4.17646C64.1801 4.17646 64.185 4.17646 64.1899 4.17646C64.7676 4.17646 66.7967 5.3122 67.5115 6.98889C67.815 7.7024 68.0402 8.81612 66.4957 10.237C65.6439 11.0203 65.59 12.3457 66.3733 13.1975C67.1566 14.0493 68.4783 14.1056 69.335 13.3211C72.1107 10.7682 72.6908 7.43438 70.8893 4.40533C69.2591 1.66879 65.5557 -0.72753 62.8314 0.205046C60.0876 1.11927 58.1465 4.7064 56.2691 8.17359C55.6082 9.39745 54.7001 11.0729 54.3036 11.4315C51.2415 13.7483 48.0741 16.0638 44.9019 18.3818C38.3322 23.1842 31.5349 28.1519 25.2761 33.4891C24.3974 34.2406 24.2921 35.5636 25.0411 36.4435C25.4572 36.9294 26.0447 37.1803 26.637 37.1803Z" fill="#EDC100"/>
<path d="M46.1013 113.132C46.1772 113.132 46.253 113.127 46.3314 113.12C47.4818 112.993 48.3116 111.959 48.1867 110.809C46.2677 93.1743 46.0939 79.4462 46.4219 64.2594C46.4464 63.1016 45.5285 62.1433 44.3732 62.1188C44.356 62.1188 44.3414 62.1176 44.3267 62.1176C43.1885 62.1176 42.2559 63.0269 42.2314 64.1688C41.8985 79.5197 42.0772 93.4019 44.0207 111.262C44.1358 112.336 45.0463 113.132 46.1013 113.132Z" fill="#EDC100"/>
<path d="M48.8158 124.511C50.7544 124.511 52.5951 124.488 53.5619 124.424L54.0539 124.403C56.1565 124.319 57.9703 124.246 58.9738 122.675C59.8844 121.254 59.3802 119.57 58.8392 118.263C55.2435 109.479 55.7698 97.6193 56.1541 88.9605C56.6069 79.4719 57.7916 69.074 58.8368 59.9L59.0522 58.0066C64.6599 51.7075 70.2847 45.4082 75.9096 39.109C81.6838 32.6422 87.4555 26.1753 93.2125 19.7097C93.9811 18.8444 93.9052 17.5202 93.0387 16.7504C92.1747 15.9806 90.8529 16.0564 90.0794 16.9217C84.3273 23.3873 78.5531 29.8518 72.7814 36.3162C67.0072 42.7831 61.2355 49.2499 55.4785 55.7156C55.1921 56.0387 55.011 56.4438 54.962 56.8734L54.6732 59.4263C53.6182 68.664 52.4262 79.1341 51.9685 88.7684C51.5646 97.8225 51.0163 110.213 54.9645 119.858C55.0085 119.967 55.0477 120.066 55.0795 120.154C54.7099 120.182 54.2742 120.2 53.885 120.215L53.3294 120.239C51.288 120.373 44.1896 120.306 42.3489 120.239L41.8741 120.244C40.895 120.262 40.1093 120.258 39.4655 120.235C39.9918 119.955 40.6404 119.632 41.4408 119.262C42.4909 118.776 42.9511 117.53 42.464 116.48C41.9818 115.43 40.7359 114.972 39.6834 115.456C35.3338 117.465 32.7514 119.202 33.3169 121.647C33.8872 124.111 37.0374 124.547 41.9646 124.434L42.2682 124.429C43.2448 124.467 46.1233 124.511 48.8158 124.511Z" fill="#EDC100"/>
<path d="M29.6918 59.348C30.5754 59.348 31.3978 58.785 31.6842 57.9002C32.044 56.7987 31.4419 55.6165 30.3404 55.2579C28.8987 54.7904 27.457 54.34 26.0177 53.8896C24.6152 53.4515 23.2151 53.0133 21.8125 52.558C20.716 52.1945 19.5313 52.804 19.1739 53.9043C18.8165 55.0057 19.4187 56.188 20.5202 56.5454C21.9349 57.0055 23.3497 57.4474 24.767 57.8904C26.1915 58.3359 27.6185 58.7814 29.0431 59.2452C29.2585 59.315 29.4763 59.348 29.6918 59.348Z" fill="#EDC100"/>
<path d="M20.5275 61.3368C20.9388 61.3368 21.3573 61.2144 21.722 60.9611C22.5273 60.4005 23.3351 59.8571 24.1404 59.3137C24.9702 58.7557 25.7975 58.1976 26.6248 57.6224C27.5745 56.9615 27.8095 55.6544 27.1486 54.7047C26.4878 53.7562 25.1807 53.5212 24.231 54.1809C23.4208 54.7451 22.6106 55.2909 21.7979 55.8368C20.9755 56.3924 20.153 56.9468 19.3282 57.5196C18.3785 58.1804 18.1435 59.4863 18.8044 60.4373C19.2107 61.0223 19.8642 61.3368 20.5275 61.3368Z" fill="#EDC100"/>
<path d="M13.6225 40.913C14.0264 40.913 14.4278 40.8983 14.8243 40.8677C18.4029 40.5924 21.1052 39.1262 22.4294 36.7397C23.7487 34.4094 23.6067 31.3498 22.0231 28.1433C20.6989 25.463 18.5596 23.0985 16.3003 21.8208C11.3951 19.0451 4.44599 19.0965 1.2346 24.6565C1.23215 24.6602 1.22971 24.6639 1.22726 24.6687C-1.95723 30.2593 1.51364 36.3113 6.39439 39.1666C8.41865 40.2925 11.0402 40.913 13.6225 40.913ZM9.59112 24.2184C11.2947 24.2184 13.0253 24.7838 14.2344 25.4679C15.7447 26.3234 17.3259 28.1017 18.2658 29.9999C19.2009 31.8956 19.3869 33.6054 18.7725 34.6897C18.1532 35.8046 16.6014 36.5267 14.5037 36.6883C12.384 36.8547 10.0317 36.3921 8.47005 35.5256C6.00275 34.0802 2.79624 30.394 4.86701 26.7481C5.95135 24.8756 7.75778 24.2184 9.59112 24.2184Z" fill="#EDC100"/>
</svg>
